# 3ds Max Wavefront OBJ Exporter v0.99 - (c)2007 guruware
# ÆÄÀÏ »ı¼ºµÊ: 27.11.2021 20:17:43

mtllib smile mask.mtl

#
# object Cylinder002
#

v  -100.0000 -0.0000 0.0000
v  -98.0785 -0.0000 19.5091
v  -98.0785 5.0000 19.5091
v  -100.0000 5.0000 0.0000
v  -92.3879 -0.0000 38.2684
v  -92.3879 5.0000 38.2684
v  -83.1469 -0.0000 55.5571
v  -83.1469 5.0000 55.5571
v  -70.7106 -0.0000 70.7107
v  -70.7106 5.0000 70.7107
v  -55.5570 -0.0000 83.1470
v  -55.5570 5.0000 83.1470
v  -38.2683 -0.0000 92.3880
v  -38.2683 5.0000 92.3880
v  -19.5089 -0.0000 98.0785
v  -19.5089 5.0000 98.0785
v  0.0001 -0.0000 100.0000
v  0.0001 5.0000 100.0000
v  19.5091 -0.0000 98.0785
v  19.5091 5.0000 98.0785
v  38.2684 -0.0000 92.3879
v  38.2684 5.0000 92.3879
v  55.5571 -0.0000 83.1469
v  55.5571 5.0000 83.1469
v  70.7108 -0.0000 70.7106
v  70.7108 5.0000 70.7106
v  83.1470 -0.0000 55.5569
v  83.1470 5.0000 55.5569
v  92.3880 -0.0000 38.2682
v  92.3880 5.0000 38.2682
v  98.0786 -0.0000 19.5089
v  98.0786 5.0000 19.5089
v  100.0000 0.0000 -0.0000
v  100.0000 5.0000 0.0000
v  98.0786 -19.5089 -0.0000
v  92.3880 -38.2682 -0.0000
v  83.1470 -55.5569 -0.0000
v  70.7108 -70.7106 -0.0000
v  55.5571 -83.1469 -0.0000
v  38.2684 -92.3879 -0.0000
v  19.5091 -98.0785 -0.0000
v  0.0001 -100.0000 -0.0000
v  -19.5089 -98.0785 -0.0000
v  -38.2683 -92.3880 -0.0000
v  -55.5570 -83.1470 -0.0000
v  -70.7106 -70.7107 -0.0000
v  -83.1469 -55.5571 -0.0000
v  -92.3879 -38.2684 -0.0000
v  -98.0785 -19.5091 -0.0000
v  -100.0000 -0.0000 -0.0000
v  -98.0785 19.5090 0.0000
v  -92.3880 38.2683 0.0000
v  -83.1470 55.5570 0.0000
v  -70.7107 70.7107 0.0000
v  -55.5570 83.1470 0.0000
v  -38.2683 92.3880 0.0000
v  -19.5090 98.0785 0.0000
v  0.0000 100.0000 0.0000
v  19.5090 98.0785 0.0000
v  38.2683 92.3879 0.0000
v  55.5570 83.1470 0.0000
v  70.7107 70.7107 0.0000
v  83.1470 55.5570 0.0000
v  92.3879 38.2683 0.0000
v  98.0785 19.5090 0.0000
v  98.0785 19.5090 5.0000
v  100.0000 -0.0000 5.0000
v  92.3879 38.2683 5.0000
v  83.1470 55.5570 5.0000
v  70.7107 70.7107 5.0000
v  55.5570 83.1470 5.0000
v  38.2683 92.3879 5.0000
v  19.5090 98.0785 5.0000
v  0.0000 100.0000 5.0000
v  -19.5090 98.0785 5.0000
v  -38.2683 92.3880 5.0000
v  -55.5570 83.1470 5.0000
v  -70.7107 70.7107 5.0000
v  -83.1470 55.5570 5.0000
v  -92.3880 38.2683 5.0000
v  -98.0785 19.5090 5.0000
v  -100.0000 -0.0000 5.0000
v  -98.0785 -19.5091 5.0000
v  -92.3879 -38.2684 5.0000
v  -83.1469 -55.5571 5.0000
v  -70.7106 -70.7107 5.0000
v  -55.5570 -83.1470 5.0000
v  -38.2683 -92.3880 5.0000
v  -19.5089 -98.0785 5.0000
v  0.0001 -100.0000 5.0000
v  19.5091 -98.0785 5.0000
v  38.2684 -92.3879 5.0000
v  55.5571 -83.1469 5.0000
v  70.7108 -70.7106 5.0000
v  83.1470 -55.5569 5.0000
v  92.3880 -38.2682 5.0000
v  98.0786 -19.5089 5.0000
# 97 vertices

vn -0.9952 0.0000 0.0980
vn -0.9808 0.0000 0.1951
vn -0.9239 0.0000 0.3827
vn -0.8315 0.0000 0.5556
vn -0.7071 0.0000 0.7071
vn -0.5556 0.0000 0.8315
vn -0.3827 0.0000 0.9239
vn -0.1951 0.0000 0.9808
vn 0.0000 0.0000 1.0000
vn 0.1951 0.0000 0.9808
vn 0.3827 0.0000 0.9239
vn 0.5556 0.0000 0.8315
vn 0.7071 0.0000 0.7071
vn 0.8315 0.0000 0.5556
vn 0.9239 0.0000 0.3827
vn 0.9808 0.0000 0.1951
vn 0.9952 0.0000 0.0980
vn 0.0000 0.0000 -1.0000
vn 1.0000 0.0000 -0.0000
vn 0.9808 0.1951 -0.0000
vn 0.9239 0.3827 -0.0000
vn 0.8315 0.5556 -0.0000
vn 0.7071 0.7071 -0.0000
vn 0.5556 0.8315 -0.0000
vn 0.3827 0.9239 -0.0000
vn 0.1951 0.9808 -0.0000
vn 0.0000 1.0000 -0.0000
vn -0.1951 0.9808 -0.0000
vn -0.3827 0.9239 -0.0000
vn -0.5556 0.8315 -0.0000
vn -0.7071 0.7071 -0.0000
vn -0.8315 0.5556 -0.0000
vn -0.9239 0.3827 -0.0000
vn -0.9808 0.1951 -0.0000
vn -1.0000 -0.0000 -0.0000
vn -0.9808 -0.1951 -0.0000
vn -0.9239 -0.3827 -0.0000
vn -0.8315 -0.5556 -0.0000
vn -0.7071 -0.7071 -0.0000
vn -0.5556 -0.8315 -0.0000
vn -0.3827 -0.9239 -0.0000
vn -0.1951 -0.9808 -0.0000
vn 0.0000 -1.0000 -0.0000
vn 0.1951 -0.9808 -0.0000
vn 0.3827 -0.9239 -0.0000
vn 0.5556 -0.8315 -0.0000
vn 0.7071 -0.7071 -0.0000
vn 0.8315 -0.5556 -0.0000
vn 0.9239 -0.3827 -0.0000
vn 0.9808 -0.1951 -0.0000
vn 0.0000 -0.0000 1.0000
# 51 vertex normals

vt -100.0000 -0.0000 0.0000
vt -98.0785 -19.5091 0.0000
vt -98.0785 -19.5091 5.0000
vt -100.0000 -0.0000 5.0000
vt -92.3879 -38.2684 0.0000
vt -92.3879 -38.2684 5.0000
vt -83.1469 -55.5571 0.0000
vt -83.1469 -55.5571 5.0000
vt -70.7106 -70.7107 0.0000
vt -70.7106 -70.7107 5.0000
vt -55.5570 -83.1470 0.0000
vt -55.5570 -83.1470 5.0000
vt -38.2683 -92.3880 0.0000
vt -38.2683 -92.3880 5.0000
vt -19.5089 -98.0785 0.0000
vt -19.5089 -98.0785 5.0000
vt 0.0001 -100.0000 0.0000
vt 0.0001 -100.0000 5.0000
vt 19.5091 -98.0785 0.0000
vt 19.5091 -98.0785 5.0000
vt 38.2684 -92.3879 0.0000
vt 38.2684 -92.3879 5.0000
vt 55.5571 -83.1469 0.0000
vt 55.5571 -83.1469 5.0000
vt 70.7108 -70.7106 0.0000
vt 70.7108 -70.7106 5.0000
vt 83.1470 -55.5569 0.0000
vt 83.1470 -55.5569 5.0000
vt 92.3880 -38.2682 0.0000
vt 92.3880 -38.2682 5.0000
vt 98.0786 -19.5089 0.0000
vt 98.0786 -19.5089 5.0000
vt 100.0000 0.0000 0.0000
vt 100.0000 0.0000 5.0000
vt 0.0586 0.2472 0.0000
vt 0.0760 0.1897 0.0000
vt 0.1044 0.1367 0.0000
vt 0.1425 0.0903 0.0000
vt 0.1889 0.0521 0.0000
vt 0.2419 0.0238 0.0000
vt 0.2994 0.0064 0.0000
vt 0.3592 0.0005 0.0000
vt 0.4190 0.0064 0.0000
vt 0.4764 0.0238 0.0000
vt 0.5294 0.0521 0.0000
vt 0.5759 0.0903 0.0000
vt 0.6140 0.1367 0.0000
vt 0.6423 0.1897 0.0000
vt 0.6597 0.2472 0.0000
vt 0.6656 0.3070 0.0000
vt 0.6597 0.3667 0.0000
vt 0.6423 0.4242 0.0000
vt 0.6140 0.4772 0.0000
vt 0.5759 0.5237 0.0000
vt 0.5294 0.5618 0.0000
vt 0.4764 0.5901 0.0000
vt 0.4190 0.6075 0.0000
vt 0.3592 0.6134 0.0000
vt 0.2994 0.6075 0.0000
vt 0.2419 0.5901 0.0000
vt 0.1889 0.5618 0.0000
vt 0.1425 0.5237 0.0000
vt 0.1044 0.4772 0.0000
vt 0.0760 0.4242 0.0000
vt 0.0586 0.3667 0.0000
vt 0.0527 0.3070 0.0000
vt 0.0503 0.0038 0.0000
vt 0.0503 0.0133 0.0868
vt 0.0005 0.0133 0.0868
vt 0.0005 0.0038 0.0000
vt 0.0503 0.0417 0.1703
vt 0.0005 0.0417 0.1703
vt 0.0503 0.0877 0.2473
vt 0.0005 0.0877 0.2473
vt 0.0503 0.1496 0.3147
vt 0.0005 0.1496 0.3147
vt 0.0503 0.2250 0.3701
vt 0.0005 0.2250 0.3701
vt 0.0503 0.3111 0.4112
vt 0.0005 0.3111 0.4112
vt 0.0503 0.4045 0.4365
vt 0.0005 0.4045 0.4365
vt 0.0503 0.5016 0.4451
vt 0.0005 0.5016 0.4451
vt 0.0503 0.5988 0.4365
vt 0.0005 0.5988 0.4365
vt 0.0503 0.6922 0.4112
vt 0.0005 0.6922 0.4112
vt 0.0503 0.7782 0.3701
vt 0.0005 0.7782 0.3701
vt 0.0503 0.8537 0.3147
vt 0.0005 0.8537 0.3147
vt 0.0503 0.9156 0.2473
vt 0.0005 0.9156 0.2473
vt 0.0503 0.9616 0.1703
vt 0.0005 0.9616 0.1703
vt 0.0503 0.9899 0.0868
vt 0.0005 0.9899 0.0868
vt 0.0503 0.9995 -0.0000
vt 0.0005 0.9995 -0.0000
vt 0.0503 0.9899 -0.0868
vt 0.0005 0.9899 -0.0868
vt 0.0503 0.9616 -0.1703
vt 0.0005 0.9616 -0.1703
vt 0.0503 0.9156 -0.2473
vt 0.0005 0.9156 -0.2473
vt 0.0503 0.8537 -0.3147
vt 0.0005 0.8537 -0.3147
vt 0.0503 0.7782 -0.3701
vt 0.0005 0.7782 -0.3701
vt 0.0503 0.6922 -0.4112
vt 0.0005 0.6922 -0.4112
vt 0.0503 0.5988 -0.4365
vt 0.0005 0.5988 -0.4365
vt 0.0503 0.5016 -0.4451
vt 0.0005 0.5016 -0.4451
vt 0.0503 0.4045 -0.4365
vt 0.0005 0.4045 -0.4365
vt 0.0503 0.3111 -0.4112
vt 0.0005 0.3111 -0.4112
vt 0.0503 0.2250 -0.3701
vt 0.0005 0.2250 -0.3701
vt 0.0503 0.1496 -0.3147
vt 0.0005 0.1496 -0.3147
vt 0.0503 0.0877 -0.2473
vt 0.0005 0.0877 -0.2473
vt 0.0503 0.0417 -0.1703
vt 0.0005 0.0417 -0.1703
vt 0.0503 0.0133 -0.0868
vt 0.0005 0.0133 -0.0868
# 130 texture coords

o Cylinder002
g Cylinder002
usemtl 01___Default
s 8
f 1/1/1 2/2/2 3/3/2 4/4/1 
f 2/2/2 5/5/3 6/6/3 3/3/2 
f 5/5/3 7/7/4 8/8/4 6/6/3 
f 7/7/4 9/9/5 10/10/5 8/8/4 
f 9/9/5 11/11/6 12/12/6 10/10/5 
f 11/11/6 13/13/7 14/14/7 12/12/6 
f 13/13/7 15/15/8 16/16/8 14/14/7 
f 15/15/8 17/17/9 18/18/9 16/16/8 
f 17/17/9 19/19/10 20/20/10 18/18/9 
f 19/19/10 21/21/11 22/22/11 20/20/10 
f 21/21/11 23/23/12 24/24/12 22/22/11 
f 23/23/12 25/25/13 26/26/13 24/24/12 
f 25/25/13 27/27/14 28/28/14 26/26/13 
f 27/27/14 29/29/15 30/30/15 28/28/14 
f 29/29/15 31/31/16 32/32/16 30/30/15 
f 31/31/16 33/33/17 34/34/17 32/32/16 
s 1
f 35/35/18 36/36/18 37/37/18 38/38/18 39/39/18 40/40/18 41/41/18 42/42/18 43/43/18 44/44/18 45/45/18 46/46/18 47/47/18 48/48/18 49/49/18 50/50/18 51/51/18 52/52/18 53/53/18 54/54/18 55/55/18 56/56/18 57/57/18 58/58/18 59/59/18 60/60/18 61/61/18 62/62/18 63/63/18 64/64/18 65/65/18 33/66/18 
s 8
f 33/67/19 65/68/20 66/69/20 67/70/19 
f 65/68/20 64/71/21 68/72/21 66/69/20 
f 64/71/21 63/73/22 69/74/22 68/72/21 
f 63/73/22 62/75/23 70/76/23 69/74/22 
f 62/75/23 61/77/24 71/78/24 70/76/23 
f 61/77/24 60/79/25 72/80/25 71/78/24 
f 60/79/25 59/81/26 73/82/26 72/80/25 
f 59/81/26 58/83/27 74/84/27 73/82/26 
f 58/83/27 57/85/28 75/86/28 74/84/27 
f 57/85/28 56/87/29 76/88/29 75/86/28 
f 56/87/29 55/89/30 77/90/30 76/88/29 
f 55/89/30 54/91/31 78/92/31 77/90/30 
f 54/91/31 53/93/32 79/94/32 78/92/31 
f 53/93/32 52/95/33 80/96/33 79/94/32 
f 52/95/33 51/97/34 81/98/34 80/96/33 
f 51/97/34 50/99/35 82/100/35 81/98/34 
f 50/99/35 49/101/36 83/102/36 82/100/35 
f 49/101/36 48/103/37 84/104/37 83/102/36 
f 48/103/37 47/105/38 85/106/38 84/104/37 
f 47/105/38 46/107/39 86/108/39 85/106/38 
f 46/107/39 45/109/40 87/110/40 86/108/39 
f 45/109/40 44/111/41 88/112/41 87/110/40 
f 44/111/41 43/113/42 89/114/42 88/112/41 
f 43/113/42 42/115/43 90/116/43 89/114/42 
f 42/115/43 41/117/44 91/118/44 90/116/43 
f 41/117/44 40/119/45 92/120/45 91/118/44 
f 40/119/45 39/121/46 93/122/46 92/120/45 
f 39/121/46 38/123/47 94/124/47 93/122/46 
f 38/123/47 37/125/48 95/126/48 94/124/47 
f 37/125/48 36/127/49 96/128/49 95/126/48 
f 36/127/49 35/129/50 97/130/50 96/128/49 
f 35/129/50 33/67/19 67/70/19 97/130/50 
s 1
f 97/130/51 67/70/51 66/69/51 68/72/51 69/74/51 70/76/51 71/78/51 72/80/51 73/82/51 74/84/51 75/86/51 76/88/51 77/90/51 78/92/51 79/94/51 80/96/51 81/98/51 82/100/51 83/102/51 84/104/51 85/106/51 86/108/51 87/110/51 88/112/51 89/114/51 90/116/51 91/118/51 92/120/51 93/122/51 94/124/51 95/126/51 96/128/51 
# 50 polygons

